<?xml version="1.0" encoding="utf-8"?>
<!-- Generator: Adobe Illustrator 22.1.0, SVG Export Plug-In . SVG Version: 6.00 Build 0)  -->
<svg version="1.1" id="Layer_1" xmlns="http://www.w3.org/2000/svg" xmlns:xlink="http://www.w3.org/1999/xlink" x="0px" y="0px"
	 viewBox="0 0 300 300" style="enable-background:new 0 0 300 300;" xml:space="preserve">
<style type="text/css">
	.st0{fill:#29332B;}
	.st1{fill:#FFFFFF;}
</style>
<g>
	<path class="st0" d="M183.8,156.5c2.8,14.3-0.2,28.6-0.4,42.9c-0.1,7.2-0.1,14.2,2.4,21.1c0.7,1.8,0.3,4.7-0.8,6.3
		c-3.3,4.7-3.4,9.6-2.6,14.8c0.2,1.5,0.4,2.9,0.4,4.4c0.1,5.9-2.3,8.4-8.2,8.7c-1.9,0.1-3.8,0.2-5.6-0.1c-3.2-0.6-6.4-1.5-9.9-2.4
		c0.6-0.9,1.1-1.5,1.6-2.1c1.3-1.8,2.7-3.7,4-5.5c0.7-1,1.5-2,2.4-2.7c3-2.2,4.6-5.2,4.4-8.9c-0.5-9.7-1-19.3-1.7-29
		c-0.6-7.9-1.1-15.9-2.2-23.7c-0.3-2.5-2.3-4.8-3.6-7.1c-0.1-0.2-0.6-0.1-1.4-0.3c0.4,1,0.6,1.6,0.9,2.2c0.7,1.5,1.6,2.9,2.1,4.4
		c1,3-0.9,5.3-4,5.6c-5.7,0.5-11.5-0.2-16.7,2.8c-0.2-4.2-0.4-8.3-0.7-12.5c-0.1-2.1-1.3-3.2-3.4-3.7c-0.8-0.2-1.6-0.7-2.2-1.3
		c-5-5.4-7.8-12-8.8-19.2c-2.4-18.1-2.4-36.2,3.7-53.7c0.9-2.5,1.9-4.9,2.9-7.3c1.8-4.2,1-5.8-3.5-6.2c-2.7-0.2-5.4-0.1-8.1,0.1
		c-6.9,0.7-13.1-0.7-17.6-6.4c-4.3-5.5-3.7-11.6-1.7-17.9c2.9,0.6,5.7,1.1,8.5,1.6c1.4,0.2,2.8,0.4,4.2,0.4c4.1,0.1,6.3-1.6,7.2-5.6
		c0.6-2.6,0.9-5.3,1.4-8c0.7-3.3,2.2-6.1,5.6-7.3c7.8-2.7,15.8-4.3,24.1-2.5c4.8,1,8.8,3.6,12,7.3c3.9,4.5,6.4,9.7,8.2,15.3
		c1.1,3.6,0.5,5.9-2.6,8c-4.7,3.2-9.6,6.2-14.5,9.3c-0.7,0.4-1.5,0.7-2.3,0.9c-1.9,0.5-3.5-0.1-3.5-2.2c0-3.7,0.4-7.3,0.8-11
		c0.2-2.2,0.7-4.4,0.9-6.6c0.1-0.8-0.2-1.6-0.4-3.1c-0.8,1-1.2,1.3-1.3,1.7c-1.4,6.6-2.8,13.1-4.1,19.7c-0.5,2.3-0.4,4.5,1.6,6.1
		c2.2,1.6,4.5,0.9,6.5-0.3c6.3-3.7,12.4-7.7,18.6-11.5c0.4-0.2,0.8-0.5,1.3-0.9c1,5.6,1.7,11,3,16.3c3.2,13.3,10.3,24.7,19.6,34.5
		c7.2,7.6,15.1,14.6,22.8,21.7c17.9,16.8,27.6,37.2,27.6,61.9c0,4-1,8.1-1.9,12.1c-0.6,2.7-0.1,4.7,2,6.6
		c11.1,10.1,26.3,10.8,38.6,1.7c2-1.5,4-2.9,6-4.3c0.5-0.3,1.3-0.5,1.7-0.2c0.4,0.2,0.6,1.2,0.4,1.6c-0.8,2.2-1.4,4.7-2.8,6.4
		c-3.2,3.8-6.5,7.7-10.3,10.8c-7.2,6-15.7,7.1-24.3,3.5c-7-2.9-13.8-6.4-20.6-10c-2.5-1.3-4.6-3.6-6.9-5.4c-1.5,3.8-0.5,7.2,3.1,9.1
		c1.8,1,4,1.5,6,2.2c2.9,0.9,3.6,2.3,2.6,5.2c-1,2.6-2.9,4.2-5.7,4.4c-10.4,1.1-20.9,2.2-31.3,3.1c-5.6,0.5-11-0.6-16-3.2
		c-3.3-1.7-3.6-3.7-1-6.4c2-2,4.3-3.2,7.2-3c5.9,0.5,11.8,0.9,17.7,1.4c0.9,0.1,1.9,0,2.8,0c0.1-0.2,0.1-0.4,0.2-0.6
		c-0.8-0.4-1.5-0.8-2.3-1c-3.6-1.2-7.5-2-10.9-3.6c-6.9-3.2-11.6-8.4-12.3-16.3c-0.6-7.1,2.5-12.9,7.2-18c1.2-1.2,2.6-2.2,4.3-3.7
		c-2.3-0.2-2.3-0.2-7.9,4.4c-2.2,1.9-4.5,3.7-7.3,5.9c-0.3-3.8-0.8-7.1-0.8-10.4c-0.2-9.3-0.1-18.5-0.2-27.8
		c-0.1-3.3-0.5-6.5-1.1-9.8c-0.3-1.4-1.4-2.7-2.1-4.1C184.2,156.3,184,156.4,183.8,156.5z"/>
	<path class="st0" d="M2.7,254.3c8.3-3.5,16.5-6.8,25.5-7.9c11.3-1.4,22.5-3.2,33.8-4.9c0.7-0.1,1.7-0.8,1.8-1.4
		c0.9-5.2,1.7-10.5,2.5-15.8c0-0.1-0.2-0.2-0.8-1c-1.1,4.3-2.1,8.1-3.2,12.5c-0.5-2.4-0.9-4.3-1.4-6.2c-1.9-7.4-5.4-14.1-9.3-20.5
		c-1.9-3.2-4.2-6.3-5.8-9.7c-1.5-3.1-2.6-6.6-3.1-10c-0.9-6.6-1.6-13.2-1.6-19.8c0-9.6,2.7-18.5,8.5-26.4c7-9.4,13.5-19.2,20.2-28.8
		c0.2-0.3,0.4-0.5,0.7-0.9c1.2,2.1,2.2,3.9,3.4,6.1c2.5-1.1,5-2.1,8-3.4c-0.1,1.7-0.2,3-0.3,4.2c-0.5,3.6,0.6,5.5,4,6.8
		c5.7,2.1,6,2.4,5.8,8.5c0,2.1,0.6,3.6,2.4,4.7c0.1,0.1,0.3,0.2,0.4,0.3c4.5,3.6,4.6,5.1,0.7,9.4c-2.5,2.8-5.8,3.9-9.2,4.8
		c-1.7,0.5-3.5,0.9-5.5,1.4c0.3,0.7,0.5,1.3,0.8,1.8c1,1.8,2.1,3.5,3.1,5.3c1.9,3.8,3.7,6.9,9.3,6.5c5.8-0.4,10.1,3.7,13.7,8.1
		c5.5,6.7,8.2,14.7,11,22.6c1,2.9,1.1,5.1-0.7,7.7c-1.4,2-2.3,4.5-2.9,7c-0.8,3.8,1.2,6.8,3.6,9.6c3,3.6,3.1,3.6,0.1,7.4
		c-2.4,3.1-3,6.4-1,9.9c0.9,1.7,0.5,2.7-0.7,3.8c-0.9,0.8-1.7,1.7-2.7,2.8c1.5,1.2,2.8,2.3,4.2,3.5c-4.5,4.4-9.5,7.4-15.6,8.6
		c-9.8,2.1-19.4,1.8-28.9-1.1c-8.4-2.6-17-3.4-25.7-3.7c-14.1-0.6-28.2-1-42.3-1.6C4.6,254.5,3.7,254.4,2.7,254.3z M88.8,247.3
		c0.1-0.4,0.2-0.9,0.3-1.3c-4.1-0.8-8.1-1.5-12.2-2.3c0.8-9.1,5.9-15.5,11.7-21.8c-0.6,0.1-1.1,0.2-1.3,0.2c-0.2-3.4-0.4-6.7-0.7-10
		c-0.3,0-0.6,0-0.8,0c-0.3,7.2-3.4,13.4-6.9,19.5c-1.4,2.4-2.6,4.9-3.7,7.5c-1.9,4.3-2.7,4.8-7.4,4c-0.8-0.1-1.6,0-2.4,0
		c0,0.3,0,0.6-0.1,0.9C73.1,245.1,81,246.2,88.8,247.3z M89.4,220.4c0.1,0.3,0.3,0.5,0.4,0.8c2.6,0,9.9-3.9,10.2-6
		C96.3,217.1,92.8,218.8,89.4,220.4z"/>
	<path class="st0" d="M155.9,226.8c-3.4-2.3-6.6-4.3-9.7-6.6c-0.4-0.3-0.2-1.5-0.4-2.2c-0.9-5,1.2-8.3,5.3-10.8
		c2.6-1.6,4.8-3.8,7.4-5.8C161.6,210.3,158.8,218.4,155.9,226.8z"/>
</g>
<path class="st1" d="M-421.6,224.1c-0.4,0.7-0.8,1.5-1.2,2.2c-0.1,0-0.2,0-0.3,0c0-0.5-0.1-1,0.1-1.4c0.2-0.5,0.7-0.8,1.1-1.2
	C-421.8,223.9-421.7,224-421.6,224.1z"/>
</svg>
