<svg xmlns="http://www.w3.org/2000/svg" version="1.1" xmlns:xlink="http://www.w3.org/1999/xlink" xmlns:svgjs="http://svgjs.com/svgjs" width="1440" height="560" preserveAspectRatio="none" viewBox="0 0 1440 560"><g mask="url(&quot;#SvgjsMask1045&quot;)" fill="none"><rect width="1440" height="560" x="0" y="0" fill="rgba(229, 149, 179, 1)"></rect><path d="M1464 560L0 560 L0 328.34Q60.59 268.93, 120 329.52Q202.14 291.66, 240 373.81Q261 274.81, 360 295.81Q403.88 267.69, 432 311.56Q452.22 259.78, 504 280.01Q549.99 254, 576 299.98Q628.25 280.23, 648 332.48Q730.08 294.56, 768 376.63Q797.73 334.36, 840 364.09Q858.58 310.67, 912 329.25Q942.56 287.81, 984 318.37Q1032.91 295.28, 1056 344.19Q1107.54 323.73, 1128 375.27Q1133.55 308.82, 1200 314.37Q1253.94 248.31, 1320 302.25Q1386.06 296.31, 1392 362.36Q1434.79 333.15, 1464 375.94z" fill="rgba(177, 88, 122, 1)"></path><path d="M1560 560L0 560 L0 418.32Q52.96 351.28, 120 404.25Q134 346.25, 192 360.24Q233.56 329.81, 264 371.37Q313.93 349.3, 336 399.22Q387.2 330.43, 456 381.63Q508.89 362.52, 528 415.41Q598.32 365.73, 648 436.04Q653.61 369.65, 720 375.26Q769.02 304.28, 840 353.3Q895.1 336.4, 912 391.5Q969.03 376.53, 984 433.56Q985.45 363.01, 1056 364.46Q1110.64 299.1, 1176 353.74Q1236.78 342.52, 1248 403.31Q1325.83 361.14, 1368 438.97Q1380.95 379.93, 1440 392.88Q1517.03 349.91, 1560 426.94z" fill="rgba(231, 101, 150, 1)"></path><path d="M1560 560L0 560 L0 509.19Q39.46 476.65, 72 516.12Q80.23 452.35, 144 460.57Q168.01 412.58, 216 436.59Q281.92 382.5, 336 448.42Q377.5 417.92, 408 459.41Q477.84 409.25, 528 479.1Q548.04 427.14, 600 447.19Q686.7 413.89, 720 500.6Q723.02 431.63, 792 434.65Q848.1 418.75, 864 474.84Q911.72 402.56, 984 450.28Q1064.86 411.14, 1104 492Q1132.01 448.01, 1176 476.02Q1253.97 434, 1296 511.97Q1320.68 464.65, 1368 489.33Q1377.45 426.78, 1440 436.23Q1511.55 387.78, 1560 459.34z" fill="rgba(227, 95, 145, 1)"></path><path d="M1464 560L0 560 L0 555.61Q42.18 525.79, 72 567.97Q138.62 514.59, 192 581.2Q232.28 501.48, 312 541.76Q386.28 496.04, 432 570.32Q474.53 540.85, 504 583.38Q525.17 484.55, 624 505.72Q654.29 464.01, 696 494.31Q743.13 469.44, 768 516.57Q861.09 489.66, 888 582.76Q926.95 501.71, 1008 540.67Q1059.82 472.48, 1128 524.3Q1215.88 492.18, 1248 580.06Q1269.06 529.12, 1320 550.18Q1340.65 498.83, 1392 519.48Q1419.91 475.39, 1464 503.3z" fill="rgba(223, 129, 164, 1)"></path></g><defs><mask id="SvgjsMask1045"><rect width="1440" height="560" fill="#ffffff"></rect></mask></defs></svg>